Coordinates
version=1
nRows=5
nColumns=42
inDegrees=yes

Units are S.I. units (second, meters, Newtons, ...)
If the header above contains a line with 'inDegrees', this indicates whether rotational values are in degrees (yes) or radians (no).

endheader
time	pelvis_tilt	pelvis_list	pelvis_rotation	pelvis_tx	pelvis_ty	pelvis_tz	hip_flexion_r	hip_adduction_r	hip_rotation_r	knee_angle_r	knee_adduction_r	knee_angle_r_beta	ankle_angle_r	subtalar_angle_r	mtp_angle_r	hip_flexion_l	hip_adduction_l	hip_rotation_l	knee_angle_l	knee_adduction_l	knee_angle_l_beta	ankle_angle_l	subtalar_angle_l	mtp_angle_l	lumbar_extension	lumbar_bending	lumbar_rotation	arm_flex_r	arm_add_r	arm_rot_r	elbow_flex_r	pro_sup_r	wrist_flex_r	wrist_dev_r	arm_flex_l	arm_add_l	arm_rot_l	elbow_flex_l	pro_sup_l	wrist_flex_l	wrist_dev_l
      0.50000000	      6.34386812	     -1.32442064	      5.12793340	     -1.06958244	      0.88364809	     -0.15944523	     -0.34317266	      2.38797549	    -20.32266584	     25.14122504	     -1.65841166	      0.43879715	     21.82134367	     30.95788661	     -9.52954660	     10.37062176	     -2.21901261	      4.45421518	     56.73258066	     -3.16353386	      0.99017033	      4.65357368	     -6.56209525	     -9.52954660	    -29.97260593	      6.86696059	     -2.91039580	      7.72049358	    -13.59132683	    -12.64138643	     43.66066504	     90.00000001	      0.00000000	      0.00000000	     17.22461143	     -8.48640602	     30.71668714	     54.40741241	     90.00000001	      0.00000000	      0.00000000
      0.51000000	      6.32015064	     -1.30841000	      5.08211378	     -1.06722659	      0.88362287	     -0.15890250	     -0.51355108	      2.37450463	    -20.26754495	     25.17731186	     -1.56153789	      0.43942699	     21.75940619	     30.71311357	     -9.51046263	     11.06932851	     -2.18938889	      4.33034475	     56.54394943	     -3.04084564	      0.98687809	      4.72133239	     -6.38275796	     -9.51046263	    -29.96699577	      6.81080209	     -2.86734908	      7.73663454	    -13.58343695	    -12.59315730	     43.75448750	     90.00000001	      0.00000000	      0.00000000	     17.41830101	     -8.41467378	     30.64758368	     54.55088221	     90.00000001	      0.00000000	      0.00000000
      0.52000000	      6.26490623	     -1.29852633	      5.24323085	     -1.06466117	      0.88354786	     -0.15874769	     -0.87783678	      2.39351948	    -20.28068642	     24.74904950	     -1.35484685	      0.43195240	     21.96091086	     30.84472913	     -9.49654540	     11.81464854	     -2.05613800	      4.49200630	     56.38729205	     -2.96922330	      0.98414390	      4.97022979	     -6.20020457	     -9.49654540	    -29.84784005	      6.85189404	     -3.00179283	      7.68567228	    -13.57219312	    -12.54438099	     43.76758225	     90.00000001	      0.00000000	      0.00000000	     17.52207734	     -8.39961402	     30.75849625	     54.60740814	     90.00000001	      0.00000000	      0.00000000
      0.53000000	      6.19852588	     -1.44613209	      5.43324428	     -1.06232845	      0.88335791	     -0.15845371	     -1.13438118	      2.61204413	    -20.28649087	     24.43271965	     -1.17798202	      0.42643140	     21.95930550	     30.81255544	     -9.43149359	     12.65745860	     -2.22105618	      4.85505280	     56.35619243	     -2.64237164	      0.98360111	      5.49181382	     -5.19287653	     -9.43149359	    -29.74954210	      7.05429402	     -3.09984213	      7.63106186	    -13.59596850	    -12.32653100	     43.97615954	     90.00000001	      0.00000000	      0.00000000	     17.67645393	     -8.45300245	     30.94645287	     54.81197032	     90.00000001	      0.00000000	      0.00000000
      0.54000000	      6.16509949	     -1.40655151	      5.49080227	     -1.05985581	      0.88329478	     -0.15816705	     -1.38461592	      2.60956249	    -20.30287575	     24.26507725	     -1.10869413	      0.42350549	     22.02362133	     30.71952537	     -9.41327173	     13.35200913	     -2.12062409	      4.82943608	     56.18050527	     -2.62379677	      0.98053479	      5.60770835	     -4.98438771	     -9.41327173	    -29.68289605	      7.02126324	     -3.15140973	      7.58475506	    -13.57925610	    -12.26739853	     44.02974404	     90.00000001	      0.00000000	      0.00000000	     17.80098128	     -8.43061501	     30.93896978	     54.84858373	     90.00000001	      0.00000000	      0.00000000
